<svg xmlns="http://www.w3.org/2000/svg" xmlns:xlink="http://www.w3.org/1999/xlink" version="1.1" viewBox="0 0 2380 800" style="background: #ffffff"><style id="v-3" type="text/css">
        .joint-element .scalable * {
            vector-effect: non-scaling-stroke;
        }
    </style><defs joint-selector="defs"><marker id="v-21252848929" orient="auto" overflow="visible" markerUnits="userSpaceOnUse"><path id="v-54" stroke="#444444" fill="#444444" transform="rotate(180)" d="M 20 -10 0 0 20 10 Z"></path></marker></defs><g joint-selector="layers"  transform="matrix(1,0,0,1,0,0)"><g  style="pointer-events: none;"></g><g ></g><g  style="user-select: none;"><!--z-index:1--><!--z-index:2--><!--z-index:3--><!--z-index:4--><!--z-index:5--><!--z-index:6--><!--z-index:7--><g   id="j_2"  transform="translate(20,756)"><g id="v-6"><text  id="v-7" font-size="24px" xml:space="preserve" y="0.8em" font-weight="normal" text-anchor="start" fill="#444444" pointer-events="none" display="block" font-family="Tahoma, Verdana, Helvetica, Arial"><tspan dy="0" >Monday, March 2, 2026 at 12:06 AM Moscow Standard Time</tspan></text></g></g><!--z-index:8--><g   id="j_1"  transform="translate(20,710)"><g id="v-4"><text  id="v-5" font-size="36px" xml:space="preserve" y="0.8em" font-weight="normal" text-anchor="start" fill="#444444" pointer-events="none" display="block" font-family="Tahoma, Verdana, Helvetica, Arial"><tspan dy="0" >System Context View: Property Hub</tspan></text></g></g><!--z-index:9--><g   id="j_3"  transform="translate(1730,165)" style=""><g  id="v-11" style="opacity: 1;"><polygon  id="v-12" stroke-width="4" pointer-events="visiblePainted" fill="#ababab" stroke="#686868" stroke-dasharray="" points="112.5,0 337.5,0 450,194.5 337.5,389 112.5,389 0,194.5" style="fill: rgb(171, 171, 171); stroke: rgb(104, 104, 104);"></polygon><text  id="v-13" font-size="33.599999999999994px" xml:space="preserve" y="131.4" font-weight="bold" text-anchor="middle" pointer-events="visible" font-family="Tahoma, Verdana, Helvetica, Arial" fill="#ffffff" dominant-baseline="hanging" transform="matrix(1,0,0,1,225,0)" style="fill: rgb(255, 255, 255);"><tspan dy="0" >Address Parser</tspan></text><text  id="v-14" font-size="16.799999999999997px" xml:space="preserve" y="173" text-anchor="middle" font-family="Tahoma, Verdana, Helvetica, Arial" fill="#ffffff" dominant-baseline="hanging" transform="matrix(1,0,0,1,225,0)" style="display: block; fill: rgb(255, 255, 255);"><tspan dy="0" >[Software System]</tspan></text><text  id="v-15" font-size="24px" xml:space="preserve" y="204.8" text-anchor="middle" font-family="Tahoma, Verdana, Helvetica, Arial" fill="#ffffff" dominant-baseline="hanging" transform="matrix(1,0,0,1,225,0)" style="display: block; fill: rgb(255, 255, 255);"><tspan dy="0" >Система для парсинга и</tspan><tspan dy="1.2em" x="0" >валидации адресов</tspan></text><g  id="v-16" font-weight="normal" text-anchor="middle" color="#ffffff" transform="matrix(1,0,0,1,222.5,357)" style="fill: rgb(255, 255, 255);" display="none"><g ></g><g ></g><g ></g><g ></g></g><image  id="v-17"></image></g></g><!--z-index:10--><g   id="j_4"  transform="translate(940,165)" style=""><g  id="v-21" style="opacity: 1;"><polygon  id="v-22" stroke-width="4" pointer-events="visiblePainted" fill="#ababab" stroke="#686868" stroke-dasharray="" points="112.5,0 337.5,0 450,194.5 337.5,389 112.5,389 0,194.5" style="fill: rgb(171, 171, 171); stroke: rgb(104, 104, 104);"></polygon><text  id="v-23" font-size="33.599999999999994px" xml:space="preserve" y="131.4" font-weight="bold" text-anchor="middle" pointer-events="visible" font-family="Tahoma, Verdana, Helvetica, Arial" fill="#ffffff" dominant-baseline="hanging" transform="matrix(1,0,0,1,225,0)" style="fill: rgb(255, 255, 255);"><tspan dy="0" >Property Hub</tspan></text><text  id="v-24" font-size="16.799999999999997px" xml:space="preserve" y="173" text-anchor="middle" font-family="Tahoma, Verdana, Helvetica, Arial" fill="#ffffff" dominant-baseline="hanging" transform="matrix(1,0,0,1,225,0)" style="display: block; fill: rgb(255, 255, 255);"><tspan dy="0" >[Software System]</tspan></text><text  id="v-25" font-size="24px" xml:space="preserve" y="204.8" text-anchor="middle" font-family="Tahoma, Verdana, Helvetica, Arial" fill="#ffffff" dominant-baseline="hanging" transform="matrix(1,0,0,1,225,0)" style="display: block; fill: rgb(255, 255, 255);"><tspan dy="0" >Система для управления</tspan><tspan dy="1.2em" x="0" >недвижимостью</tspan></text><g  id="v-26" font-weight="normal" text-anchor="middle" color="#ffffff" transform="matrix(1,0,0,1,210,357)" style="fill: rgb(255, 255, 255);" display="none"><g  transform="translate(5 0)"><svg xmlns="http://www.w3.org/2000/svg" width="20" height="20" fill="currentColor" viewBox="0 0 16 16"><path fill-rule="evenodd" d="M6.5 12a5.5 5.5 0 1 0 0-11 5.5 5.5 0 0 0 0 11zM13 6.5a6.5 6.5 0 1 1-13 0 6.5 6.5 0 0 1 13 0z"></path><path d="M10.344 11.742c.03.04.062.078.098.115l3.85 3.85a1 1 0 0 0 1.415-1.414l-3.85-3.85a1.007 1.007 0 0 0-.115-.1 6.538 6.538 0 0 1-1.398 1.4z"></path><path fill-rule="evenodd" d="M6.5 3a.5.5 0 0 1 .5.5V6h2.5a.5.5 0 0 1 0 1H7v2.5a.5.5 0 0 1-1 0V7H3.5a.5.5 0 0 1 0-1H6V3.5a.5.5 0 0 1 .5-.5z"></path></svg></g><g ></g><g ></g><g ></g></g><image  id="v-27"></image></g></g><!--z-index:11--><g   id="j_5"  transform="translate(200,160)" style=""><g  id="v-31" style="opacity: 1;"><rect  x="0" y="160" width="400" height="240" rx="70" id="v-33" stroke-width="2" pointer-events="visiblePainted" fill="#ababab" stroke="#686868" stroke-dasharray="" style="fill: rgb(171, 171, 171); stroke: rgb(104, 104, 104);"></rect><circle  cx="200" cy="88.88888888888889" r="88.88888888888889" id="v-32" stroke-width="2" pointer-events="visiblePainted" fill="#ababab" stroke="#686868" stroke-dasharray="" style="fill: rgb(171, 171, 171); stroke: rgb(104, 104, 104);"></circle><line  x1="80" y1="266.6666666666667" x2="80" y2="400" id="v-39" stroke="#686868" stroke-width="1" stroke-dasharray="" style="stroke: rgb(104, 104, 104);"></line><line  x1="320" y1="266.6666666666667" x2="320" y2="400" id="v-40" stroke="#686868" stroke-width="1" stroke-dasharray="" style="stroke: rgb(104, 104, 104);"></line><text  id="v-34" font-size="33.599999999999994px" xml:space="preserve" y="216.9" font-weight="bold" text-anchor="middle" pointer-events="visible" font-family="Tahoma, Verdana, Helvetica, Arial" fill="#ffffff" dominant-baseline="hanging" transform="matrix(1,0,0,1,200,0)" style="fill: rgb(255, 255, 255);"><tspan dy="0" >Пользователь</tspan></text><text  id="v-35" font-size="16.799999999999997px" xml:space="preserve" y="258.5" text-anchor="middle" font-family="Tahoma, Verdana, Helvetica, Arial" fill="#ffffff" dominant-baseline="hanging" transform="matrix(1,0,0,1,200,0)" style="display: block; fill: rgb(255, 255, 255);"><tspan dy="0" >[Person]</tspan></text><text  id="v-36" font-size="24px" xml:space="preserve" y="290.3" text-anchor="middle" font-family="Tahoma, Verdana, Helvetica, Arial" fill="#ffffff" dominant-baseline="hanging" transform="matrix(1,0,0,1,200,0)" style="display: block; fill: rgb(255, 255, 255);"><tspan dy="0" >Конечный пользователь</tspan><tspan dy="1.2em" x="0" >системы</tspan></text><g  id="v-37" font-weight="normal" text-anchor="middle" color="#ffffff" transform="matrix(1,0,0,1,197.5,368)" style="fill: rgb(255, 255, 255);" display="none"><g ></g><g ></g><g ></g><g ></g></g><image  id="v-38"></image></g></g><!--z-index:12--><g   id="j_6"  style="opacity: 1;"><path fill="none" cursor="pointer" stroke="transparent" stroke-linecap="round" joint-selector="wrapper" id="v-52" stroke-width="10" stroke-linejoin="round" d="M 1390 359.5 L 1730 359.5" style="stroke-width: 10px;"></path><path fill="none" pointer-events="none" joint-selector="line" id="v-51" stroke="#444444" stroke-width="2" stroke-linejoin="round" stroke-dasharray="8 8" d="M 1390 359.5 L 1730 359.5" marker-end="url(#v-21252848929)"></path><g id="v-44" ><g id="v-45"  label-idx="0" cursor="move" transform="matrix(1,0,0,1,1560,359.5)" style="cursor: default;"><rect joint-selector="rect" id="v-48" fill="#ffffff" rx="3" ry="3" x="-94.42220306396484" y="-85.83250427246094" width="188.8444061279297" height="170.76864624023438" pointer-events="none"  style="display: block;"></rect><text joint-selector="text" id="v-47" font-size="24px" xml:space="preserve" fill="#444444" text-anchor="middle" pointer-events="none" font-family="Tahoma, Verdana, Helvetica, Arial" font-weight="normal"  style="display: block;"><tspan dy="-2.7em" >Отправка</tspan><tspan dy="1.2em" x="0" >адресов,</tspan><tspan dy="1.2em" x="0" >указанных</tspan><tspan dy="1.2em" x="0" >пользователем,</tspan><tspan dy="1.2em" x="0" >для валидации и</tspan><tspan dy="1.2em" x="0" >парсинга</tspan></text></g><g id="v-46"  label-idx="1" cursor="move" transform="matrix(1,0,0,1,1550,443.5)" style="cursor: default;"><rect joint-selector="rect" id="v-50" fill="#ffffff" rx="3" ry="3" x="0" y="0" width="0" height="0"  display="none"></rect><text joint-selector="text" id="v-49" fill="#000000" font-size="14" text-anchor="middle" text-vertical-anchor="middle" pointer-events="none"></text></g></g></g><!--z-index:13--><g   id="j_7"  style="opacity: 1;"><path fill="none" cursor="pointer" stroke="transparent" stroke-linecap="round" joint-selector="wrapper" id="v-66" stroke-width="10" stroke-linejoin="round" d="M 600 359.87 L 940 359.65" style="stroke-width: 10px;"></path><path fill="none" pointer-events="none" joint-selector="line" id="v-65" stroke="#444444" stroke-width="2" stroke-linejoin="round" stroke-dasharray="8 8" d="M 600 359.87 L 940 359.65" marker-end="url(#v-21252848929)"></path><g id="v-58" ><g id="v-59"  label-idx="0" cursor="move" transform="matrix(1,0,0,1,770,359.760009765625)" style="cursor: default;"><rect joint-selector="rect" id="v-62" fill="#ffffff" rx="3" ry="3" x="-54.104923248291016" y="-28.23250389099121" width="108.24388885498047" height="55.56864547729492" pointer-events="none"  style="display: block;"></rect><text joint-selector="text" id="v-61" font-size="24px" xml:space="preserve" fill="#444444" text-anchor="middle" pointer-events="none" font-family="Tahoma, Verdana, Helvetica, Arial" font-weight="normal"  style="display: block;"><tspan dy="-0.3em" >Создание</tspan><tspan dy="1.2em" x="0" >аккаунта</tspan></text></g><g id="v-60"  label-idx="1" cursor="move" transform="matrix(1,0,0,1,760,386.1600036621094)" style="cursor: default;"><rect joint-selector="rect" id="v-64" fill="#ffffff" rx="3" ry="3" x="0" y="0" width="0" height="0"  display="none"></rect><text joint-selector="text" id="v-63" fill="#000000" font-size="14" text-anchor="middle" text-vertical-anchor="middle" pointer-events="none"></text></g></g></g><!--z-index:14--></g><g  style="user-select: none;"></g><g ></g><g  display="none"></g></g></svg>